<svg width="7" height="6" viewBox="0 0 7 6" fill="none" xmlns="http://www.w3.org/2000/svg">
<path d="M0.23291 1.37407L3.33046 5.13141C3.41851 5.23876 3.58255 5.23876 3.67181 5.13141L6.76936 1.37407C6.88757 1.23053 6.78625 1.01221 6.59928 1.01221H0.402985C0.216023 1.01221 0.113495 1.22932 0.23291 1.37407Z" fill="white"/>
<path d="M0.105106 1.50185C0.18351 1.59714 0.261914 1.69243 0.341524 1.78772C0.538136 2.02655 0.735954 2.26538 0.932566 2.50421C1.18587 2.81179 1.43917 3.11817 1.69248 3.42575C1.94337 3.72972 2.19305 4.03368 2.44395 4.33644C2.63211 4.56442 2.82028 4.79239 3.00845 5.02157C3.11339 5.14943 3.21954 5.32192 3.386 5.37378C3.55004 5.42444 3.7177 5.3569 3.82264 5.23024C3.86607 5.17717 3.90949 5.1253 3.95291 5.07223C4.13023 4.85632 4.30875 4.64041 4.48606 4.4257C4.73213 4.12656 4.9794 3.82742 5.22547 3.52828C5.48118 3.21829 5.7369 2.90708 5.99261 2.59709C6.19888 2.3474 6.40514 2.09772 6.6114 1.84683C6.70548 1.73224 6.80077 1.62006 6.89365 1.50426C6.95999 1.42224 7.00462 1.32936 6.9998 1.22201C6.99256 1.0459 6.87073 0.885478 6.69825 0.84326C6.64276 0.829992 6.58969 0.831198 6.533 0.831198C6.35206 0.831198 6.17113 0.831198 5.989 0.831198C5.67417 0.831198 5.35935 0.831198 5.04453 0.831198C4.65372 0.831198 4.26291 0.831198 3.8733 0.831198C3.46561 0.831198 3.0567 0.831198 2.649 0.831198C2.2799 0.831198 1.9108 0.831198 1.5417 0.831198C1.27392 0.831198 1.00494 0.831198 0.73716 0.831198C0.626189 0.831198 0.515218 0.827579 0.404246 0.831198C0.265532 0.834817 0.146118 0.898746 0.0677139 1.01334C-0.0227518 1.14481 -0.0215455 1.33781 0.0773636 1.46566C0.136468 1.54286 0.232965 1.58387 0.324637 1.5308C0.400628 1.48617 0.450082 1.36072 0.389772 1.28353C0.381328 1.27146 0.374091 1.25699 0.364441 1.24613C0.366854 1.24855 0.371679 1.27508 0.36806 1.25699C0.366854 1.25096 0.364442 1.24372 0.362029 1.23648C0.353586 1.20874 0.357204 1.2594 0.363235 1.23045C0.364441 1.22563 0.36806 1.20392 0.363235 1.22804C0.355998 1.25578 0.365648 1.22201 0.366854 1.2196C0.37771 1.20392 0.362029 1.22925 0.360823 1.23166C0.364441 1.22563 0.366854 1.2196 0.370473 1.21357C0.374091 1.20754 0.37771 1.20271 0.381328 1.19668C0.37771 1.20271 0.371679 1.2208 0.374091 1.20754C0.375297 1.20392 0.386153 1.19668 0.388566 1.19306C0.383741 1.19789 0.372885 1.21357 0.378916 1.2015C0.381328 1.19789 0.39339 1.19427 0.397009 1.19186C0.386153 1.19909 0.372885 1.2015 0.39339 1.19547C0.423546 1.18582 0.370473 1.19306 0.404246 1.19427C0.405453 1.19427 0.405453 1.19427 0.406659 1.19427C0.410277 1.19427 0.415102 1.19427 0.418721 1.19427C0.464557 1.19427 0.511599 1.19427 0.557435 1.19427C0.770934 1.19427 0.985639 1.19427 1.19914 1.19427C1.52723 1.19427 1.85532 1.19427 2.18341 1.19427C2.57422 1.19427 2.96503 1.19427 3.35584 1.19427C3.75389 1.19427 4.15073 1.19427 4.54878 1.19427C4.89738 1.19427 5.24718 1.19427 5.59577 1.19427C5.84184 1.19427 6.08791 1.19427 6.33397 1.19427C6.40031 1.19427 6.46786 1.19427 6.5342 1.19427C6.55109 1.19427 6.56798 1.19427 6.58366 1.19427C6.58728 1.19427 6.59089 1.19427 6.59572 1.19427C6.59692 1.19427 6.59692 1.19427 6.59813 1.19427C6.60296 1.19427 6.60899 1.19547 6.61381 1.19427C6.5728 1.19547 6.6319 1.20271 6.61381 1.19547C6.58607 1.18462 6.64638 1.21719 6.62105 1.19909C6.59572 1.181 6.64759 1.22804 6.62708 1.20392C6.6114 1.18582 6.63432 1.2196 6.63794 1.22442C6.64879 1.2389 6.63311 1.21598 6.63311 1.21236C6.63432 1.2196 6.63673 1.23166 6.64035 1.23769C6.64035 1.23769 6.63673 1.2015 6.63794 1.22322C6.63794 1.22925 6.63673 1.23769 6.63794 1.24372C6.63673 1.2401 6.64759 1.21115 6.64035 1.22925C6.63794 1.23528 6.63673 1.24372 6.63552 1.24975C6.63432 1.25458 6.62467 1.27267 6.63432 1.25458C6.64517 1.23407 6.6307 1.25578 6.6307 1.2582C6.6307 1.26543 6.60657 1.28353 6.6319 1.2582C6.69825 1.19306 6.64397 1.24372 6.64156 1.24613C6.63432 1.25217 6.62949 1.26181 6.62346 1.26905C6.58366 1.3173 6.54265 1.36676 6.50284 1.415C6.33397 1.61885 6.16631 1.82391 5.99744 2.02776C5.75861 2.31725 5.51978 2.60674 5.28095 2.89743C5.02885 3.20381 4.77555 3.51019 4.52345 3.81657C4.31357 4.07108 4.10369 4.32559 3.89381 4.5801C3.78284 4.71399 3.67307 4.84908 3.5621 4.98297C3.55607 4.99021 3.55125 4.99624 3.54522 5.00348C3.53798 5.01192 3.53074 5.01916 3.5223 5.0276C3.5428 5.0083 3.51868 5.02881 3.50662 5.03484C3.53436 5.02157 3.50541 5.03243 3.49214 5.03484C3.49455 5.03484 3.5235 5.03122 3.503 5.03122C3.47526 5.03122 3.53315 5.03363 3.50541 5.03363C3.49817 5.03363 3.48973 5.03001 3.4837 5.0276C3.48611 5.0276 3.51144 5.03966 3.49094 5.03122C3.4837 5.0276 3.47767 5.02398 3.47043 5.01916C3.47405 5.02157 3.48973 5.03725 3.47646 5.02278C3.47043 5.01674 3.4644 5.01071 3.45957 5.00348C3.43545 4.97573 3.41253 4.94558 3.38841 4.91663C3.24366 4.74052 3.09771 4.56442 2.95297 4.38831C2.72499 4.11209 2.49702 3.83466 2.26905 3.55844C2.01454 3.24965 1.76003 2.94086 1.50552 2.63207C1.28116 2.35947 1.05681 2.08807 0.832451 1.81547C0.694943 1.6478 0.557435 1.48135 0.418721 1.31368C0.399422 1.29076 0.381328 1.26785 0.362029 1.24493C0.299306 1.16894 0.170242 1.181 0.106313 1.24493C0.0303216 1.31971 0.0423836 1.42586 0.105106 1.50185Z" fill="white"/>
</svg>
